<?xml version="1.0" encoding="UTF-8" standalone="no"?>
<svg
   xmlns:dc="http://purl.org/dc/elements/1.1/"
   xmlns:cc="http://creativecommons.org/ns#"
   xmlns:rdf="http://www.w3.org/1999/02/22-rdf-syntax-ns#"
   xmlns:svg="http://www.w3.org/2000/svg"
   xmlns="http://www.w3.org/2000/svg"
   xmlns:sodipodi="http://sodipodi.sourceforge.net/DTD/sodipodi-0.dtd"
   xmlns:inkscape="http://www.inkscape.org/namespaces/inkscape"
   width="810.12958mm"
   height="721.80145mm"
   viewBox="0 0 810.12958 721.80145"
   version="1.1"
   id="svg8"
   inkscape:version="1.0.1 (3bc2e813f5, 2020-09-07)"
   sodipodi:docname="illus.svg">
  <defs
     id="defs2" />
  <sodipodi:namedview
     id="base"
     pagecolor="#ffffff"
     bordercolor="#666666"
     borderopacity="1.0"
     inkscape:pageopacity="0.0"
     inkscape:pageshadow="2"
     inkscape:zoom="0.175"
     inkscape:cx="869.02265"
     inkscape:cy="1115.8604"
     inkscape:document-units="mm"
     inkscape:current-layer="layer1"
     inkscape:document-rotation="0"
     showgrid="false"
     fit-margin-top="0"
     fit-margin-left="0"
     fit-margin-right="0"
     fit-margin-bottom="0"
     inkscape:window-width="1920"
     inkscape:window-height="1013"
     inkscape:window-x="-9"
     inkscape:window-y="29"
     inkscape:window-maximized="1" />
  <metadata
     id="metadata5">
    <rdf:RDF>
      <cc:Work
         rdf:about="">
        <dc:format>image/svg+xml</dc:format>
        <dc:type
           rdf:resource="http://purl.org/dc/dcmitype/StillImage" />
        <dc:title></dc:title>
      </cc:Work>
    </rdf:RDF>
  </metadata>
  <g
     inkscape:label="Layer 1"
     inkscape:groupmode="layer"
     id="layer1"
     transform="translate(371.8029,225.58524)">
    <g
       id="g1695"
       transform="matrix(0.26458333,0,0,0.26458333,-628.18224,-328.11965)">
      <g
         id="FLOOR">
	<line
   class="st0"
   x1="3928.5"
   y1="3059"
   x2="969.09998"
   y2="3059"
   id="line835" />

	<line
   class="st0"
   x1="1227.6"
   y1="3112.6001"
   x2="2922.3"
   y2="3112.6001"
   id="line837" />

</g>
      <g
         id="TABLE">
	<path
   class="st1"
   d="m 3776,2393.9 h -473.3 c -22.4,0 -40.6,18.2 -40.6,40.6 V 3059 h 554.4 v -624.5 c 0.1,-22.4 -18.1,-40.6 -40.5,-40.6 z"
   id="path840" />

	<path
   class="st2"
   d="m 3776,2393.9 h -473.3 c -22.4,0 -40.6,18.2 -40.6,40.6 V 3059 h 554.4 v -624.5 c 0.1,-22.4 -18.1,-40.6 -40.5,-40.6 z"
   id="path842" />

	<rect
   x="3198.3"
   y="1692.3"
   class="st2"
   width="683"
   height="1366.6"
   id="rect844" />

	<polyline
   class="st2"
   points="3899.2,1521.2 1556.9,1521.2 1556.9,1692.3 4030.9,1692.3  "
   id="polyline846" />

	<path
   class="st2"
   d="m 3776,2013.5 h -472.4 c -22.4,0 -40.6,-18.2 -40.6,-40.6 v -166.8 c 0,-22.4 18.2,-40.6 40.6,-40.6 H 3776 c 22.4,0 40.6,18.2 40.6,40.6 V 1973 c 0,22.4 -18.2,40.5 -40.6,40.5 z"
   id="path848" />

	<path
   class="st2"
   d="m 3776,2315.5 h -472.4 c -22.4,0 -40.6,-18.2 -40.6,-40.6 v -166.8 c 0,-22.4 18.2,-40.6 40.6,-40.6 H 3776 c 22.4,0 40.6,18.2 40.6,40.6 v 166.8 c 0,22.4 -18.2,40.6 -40.6,40.6 z"
   id="path850" />

	<circle
   class="st0"
   cx="3541.3999"
   cy="1887.4"
   r="32.5"
   id="circle852" />

	<circle
   class="st0"
   cx="3541.3999"
   cy="2190.3"
   r="32.5"
   id="circle854" />

</g>
      <g
         id="BACKET">
	<g
   id="g861">
		<polygon
   class="st3"
   points="3732.9,2675 3731.8,2682.1 3731.8,2682.1 3727.1,2712.3 3725.4,2722.9 3725.4,2722.9 3721,2750.9 3719.9,2758 3709.2,2826.6 3709.2,2826.9 3708.1,2834 3707.5,2837.2 3697.3,2902.8 3696.2,2909.9 3696.2,2909.9 3691.4,2940.8 3691.4,2940.9 3689.7,2951.5 3685.4,2978.7 3685.4,2978.7 3684.3,2985.8 3673.6,3054.7 3673.5,3055.1 3673.5,3055.1 3673,3058.3 3672.9,3059 3391.9,3059 3391.8,3058.2 3391.3,3055.4 3391.2,3054.5 3391.2,3054.5 3380.4,2985.7 3379.3,2978.5 3375.1,2951.8 3373.5,2941.1 3368.6,2909.7 3367.5,2902.6 3357.3,2837.5 3356.7,2833.8 3355.6,2826.8 3355.6,2826.7 3344.8,2757.8 3343.7,2750.7 3339.4,2723.2 3337.8,2712.6 3333,2681.9 3331.9,2674.8 3321.6,2609 3320.5,2601.9 3744.3,2601.9 3743.6,2606.2 3743.3,2608.7 3732.9,2675 "
   id="polygon857" />

		<path
   class="st4"
   d="m 3675.6,3062.1 h -286.4 l -1.2,-7.4 -71.2,-455.9 h 431.1 z m -281.1,-6.2 h 275.7 l 70.4,-450.8 H 3324 Z"
   id="path859" />

	</g>

	<path
   class="st4"
   d="m 3748.2,2601.9 c 0,1.4 -0.2,2.9 -0.7,4.3 -3.4,10.5 -19,20.2 -43.5,28.2 -1.8,0.6 -3.6,1.1 -5.4,1.7 -15.8,4.7 -34.7,8.8 -56,11.9 -2,0.3 -4,0.6 -6.1,0.9 -18.8,2.6 -39.3,4.5 -61,5.6 -2.2,0.1 -4.3,0.2 -6.5,0.3 -11.9,0.5 -24.2,0.8 -36.7,0.8 -9.6,0 -19.1,-0.2 -28.4,-0.5 -2.3,-0.1 -4.6,-0.2 -6.9,-0.3 -25,-1 -48.6,-3.1 -70,-6.1 -2.6,-0.4 -5.1,-0.7 -7.6,-1.1 -36.3,-5.5 -65.5,-13.6 -83.4,-23.3 -10.4,-5.6 -16.9,-11.7 -19,-18.1 l -0.6,-4.2 c 0,-29.6 96.6,-53.5 215.8,-53.5 118.5,0 214.7,23.7 215.8,53.1 0.2,0 0.2,0.1 0.2,0.3 z"
   id="path863" />

	<g
   id="g931">
		<g
   id="g869">
			<g
   id="g867">
				<path
   class="st4"
   d="m 3673.7,3054.8 v 4 l -0.7,-0.5 -0.1,0.6 h -2.6 l -31.9,-41.2 -3.3,-4.3 -32.1,-41.4 -3.3,-4.3 -32.1,-41.4 -3.3,-4.3 -32.1,-41.4 -3.3,-4.3 -32.1,-41.4 -3.3,-4.3 -32,-41.4 -3.3,-4.3 -32.1,-41.4 -3.3,-4.3 -32,-41.4 -3.3,-4.3 -32,-41.4 -3.3,-4.3 -30.7,-39.6 -0.5,-2.9 c 2,6.3 8.4,12.3 18.6,17.8 l 15.8,20.4 3.3,4.3 32.1,41.4 3.3,4.3 32.1,41.4 3.3,4.3 32.1,41.4 3.3,4.3 32.1,41.4 3.3,4.3 32.1,41.4 3.3,4.3 32.1,41.4 3.3,4.3 32.1,41.4 3.3,4.3 32.1,41.4 3.3,4.3 31.9,41.2 z"
   id="path865" />

			</g>

		</g>

		<g
   id="g875">
			<g
   id="g873">
				<path
   class="st4"
   d="m 3685.4,2978.7 v 0 l -1.1,7.1 -10.6,-13.7 -3.3,-4.3 -32.1,-41.4 -3.3,-4.3 -32.1,-41.4 -3.3,-4.3 -32.1,-41.4 -3.3,-4.3 -32.1,-41.4 -3.3,-4.3 -31.8,-41 -3.3,-4.3 -32.1,-41.4 -3.3,-4.3 -32.1,-41.4 -3.3,-4.3 -1.4,-1.8 c 2.4,0.4 4.9,0.7 7.4,1.1 l 0.5,0.7 32.1,41.4 3.3,4.3 32.1,41.4 3.3,4.3 32.1,41.4 3.3,4.3 32.1,41.4 3.3,4.3 32.1,41.4 3.3,4.3 32.1,41.4 3.3,4.3 32.1,41.4 3.3,4.3 z"
   id="path871" />

			</g>

		</g>

		<g
   id="g881">
			<g
   id="g879">
				<path
   class="st4"
   d="m 3697.3,2902.8 -1.1,7.1 -22.5,-29 -3.3,-4.3 -32.1,-41.4 -3.3,-4.3 -32.1,-41.4 -3.3,-4.3 -32.1,-41.4 -3.3,-4.3 -32.1,-41.4 -3.3,-4.3 -31.3,-40.4 c 2.3,0.1 4.5,0.2 6.8,0.3 l 27.8,35.8 3.3,4.3 32.1,41.4 3.3,4.3 32.1,41.4 3.3,4.3 32.1,41.4 3.3,4.3 32.1,41.4 3.3,4.3 z"
   id="path877" />

			</g>

		</g>

		<g
   id="g887">
			<g
   id="g885">
				<path
   class="st4"
   d="m 3709.2,2826.9 -1.1,7.1 -2.3,-3 -32.1,-41.4 -3.3,-4.3 -32.1,-41.4 -3.3,-4.3 -32.1,-41.4 -3.3,-4.3 -31.3,-40.4 c 2.1,-0.1 4.3,-0.2 6.4,-0.3 l 28.2,36.4 3.3,4.3 32.1,41.4 3.3,4.3 32.1,41.4 3.3,4.3 32.1,41.4 z"
   id="path883" />

			</g>

		</g>

		<g
   id="g893">
			<g
   id="g891">
				<polygon
   class="st4"
   points="3426.2,3017.8 3422.9,3013.5 3390.9,2972.1 3387.6,2967.9 3375.1,2951.8 3373.5,2941.1 3390.9,2963.6 3394.2,2967.9 3426.2,3009.2 3429.5,3013.5 3461.6,3054.9 3463.6,3057.4 3461.6,3058.9 3461.5,3059 3458.2,3059 "
   id="polygon889" />

			</g>

		</g>

		<g
   id="g899">
			<g
   id="g897">
				<polygon
   class="st4"
   points="3391.8,3058.2 3391.3,3055.4 3392.8,3057.4 "
   id="polygon895" />

			</g>

		</g>

		<g
   id="g905">
			<g
   id="g903">
				<polygon
   class="st4"
   points="3497,3017.8 3493.7,3013.5 3461.6,2972.1 3458.3,2967.9 3426.2,2926.5 3422.9,2922.3 3422.9,2922.2 3390.9,2880.9 3387.6,2876.6 3357.3,2837.5 3356.7,2833.8 3355.6,2826.8 3358.8,2831 3390.9,2872.4 3394.2,2876.6 3426.2,2918 3429.5,2922.3 3461.6,2963.6 3464.9,2967.9 3497,3009.2 3500.3,3013.5 3532.3,3054.9 3534.3,3057.4 3532.3,3058.9 3532.2,3059 3528.9,3059 "
   id="polygon901" />

			</g>

		</g>

		<g
   id="g911">
			<g
   id="g909">
				<polygon
   class="st4"
   points="3567.7,3017.8 3564.4,3013.5 3532.3,2972.1 3529,2967.9 3497,2926.5 3493.7,2922.3 3461.6,2880.9 3458.3,2876.6 3426.2,2835.3 3422.9,2831 3390.9,2789.6 3387.6,2785.4 3355.5,2744 3352.2,2739.8 3339.4,2723.2 3337.8,2712.6 3355.5,2735.5 3358.8,2739.8 3390.9,2781.1 3394.2,2785.4 3426.2,2826.7 3429.5,2831 3461.6,2872.4 3464.9,2876.6 3497,2918 3500.3,2922.3 3532.3,2963.6 3535.6,2967.9 3567.7,3009.2 3571,3013.5 3603,3054.9 3605,3057.4 3603,3058.9 3602.9,3059 3599.6,3059 "
   id="polygon907" />

			</g>

		</g>

		<g
   id="g917">
			<g
   id="g915">
				<path
   class="st4"
   d="m 3721,2750.9 -1.1,7.1 -10.8,-14 -3.3,-4.3 -32.1,-41.4 -3.3,-4.3 -32.1,-41.4 -3.3,-4.3 -0.4,-0.5 c 2,-0.3 4,-0.6 5.9,-0.9 l 1.1,1.4 32.1,41.4 3.3,4.3 32.1,41.4 3.3,4.3 z"
   id="path913" />

			</g>

		</g>

		<g
   id="g923">
			<g
   id="g921">
				<path
   class="st4"
   d="m 3732.9,2675 v 0 l -1.1,7.1 -22.7,-29.3 -3.3,-4.3 -10.1,-13.1 c 1.8,-0.5 3.6,-1.1 5.3,-1.7 l 8.1,10.5 3.3,4.3 z"
   id="path919" />

			</g>

		</g>

		<g
   id="g929">
			<g
   id="g927">
				<path
   class="st4"
   d="m 3747.2,2603.5 -2.8,3.6 -0.8,-1 v 0 c 0.5,-1.4 0.7,-2.8 0.7,-4.2 0,-0.2 0,-0.3 0,-0.5 l 0.1,-0.1 z"
   id="path925" />

			</g>

		</g>

	</g>

	<g
   id="g987">
		<g
   id="g937">
			<g
   id="g935">
				<polygon
   class="st4"
   points="3709.1,2744 3677,2785.4 3673.7,2789.6 3641.7,2831 3638.4,2835.3 3606.3,2876.6 3603,2880.9 3571,2922.3 3567.7,2926.5 3535.6,2967.9 3532.3,2972.1 3500.3,3013.5 3497,3017.8 3465,3059 3461.7,3059 3461.6,3058.9 3459.7,3057.4 3461.6,3054.9 3493.7,3013.5 3497,3009.2 3529,2967.9 3532.3,2963.6 3564.4,2922.3 3567.7,2918 3599.7,2876.6 3603,2872.4 3635.1,2831 3638.4,2826.7 3670.4,2785.4 3673.7,2781.1 3705.8,2739.8 3709.1,2735.5 3727.1,2712.3 3725.4,2722.9 3712.4,2739.8 "
   id="polygon933" />

			</g>

		</g>

		<g
   id="g943">
			<g
   id="g941">
				<path
   class="st4"
   d="m 3743.3,2608.7 -30.9,39.9 -3.3,4.3 -32.1,41.4 -3.3,4.3 -32.1,41.4 -3.3,4.3 -32.1,41.4 -3.3,4.3 -31.9,41 -3.3,4.3 -32.1,41.4 -3.3,4.3 -32.1,41.4 -3.3,4.3 -32.1,41.4 -3.3,4.3 -32.1,41.4 -3.3,4.3 -31.9,41.2 h -2.4 l -0.1,-0.8 -0.4,-2.8 -0.4,-0.5 0.3,-0.4 v 0 l 31.8,-41 3.3,-4.3 32.1,-41.4 3.3,-4.3 32.1,-41.4 3.3,-4.3 32.1,-41.4 3.3,-4.3 32.1,-41.4 3.3,-4.3 32.1,-41.4 3.3,-4.3 32.1,-41.4 3.3,-4.3 32.1,-41.4 3.3,-4.3 32,-41.4 3.3,-4.3 15.7,-20.3 c 10.3,-5.5 16.8,-11.5 18.9,-17.9 z"
   id="path939" />

			</g>

		</g>

		<g
   id="g949">
			<g
   id="g947">
				<path
   class="st4"
   d="m 3643,2646.8 -1.4,1.8 -3.3,4.3 -32.1,41.4 -3.3,4.3 -32.1,41.4 -3.3,4.3 -32.1,41.4 -3.3,4.3 -32.1,41.4 -3.3,4.3 -32.1,41.4 -3.3,4.3 -32.1,41.4 -3.3,4.3 -32.1,41.4 -3.3,4.3 -10.5,13.5 -1.1,-7.1 8.3,-10.7 3.3,-4.3 32,-41.4 v 0 l 3.3,-4.3 32.1,-41.4 3.3,-4.3 32,-41.4 3.3,-4.3 32.1,-41.4 3.3,-4.3 32.1,-41.4 3.3,-4.3 32.1,-41.4 3.3,-4.3 32.1,-41.4 0.5,-0.7 c 1.7,-0.2 3.4,-0.5 5,-0.7 1.1,-0.2 1.9,-0.3 2.7,-0.4 z"
   id="path945" />

			</g>

		</g>

		<g
   id="g955">
			<g
   id="g953">
				<path
   class="st4"
   d="m 3566.9,2653.8 -31.3,40.3 -3.3,4.3 -32.1,41.4 -3.3,4.3 -32.1,41.4 -3.3,4.3 -32.1,41.4 -3.3,4.3 -32.1,41.4 -3.3,4.3 -22.3,28.8 -1.1,-7.1 20.1,-26 3.3,-4.3 32.1,-41.4 3.3,-4.3 32.1,-41.4 3.3,-4.3 32.1,-41.4 3.3,-4.3 32.1,-41.4 3.3,-4.3 27.8,-35.8 c 2.2,0 4.5,-0.1 6.8,-0.2 z"
   id="path951" />

			</g>

		</g>

		<g
   id="g961">
			<g
   id="g959">
				<polygon
   class="st4"
   points="3641.7,3013.5 3638.4,3017.8 3606.4,3059 3603.1,3059 3603,3058.9 3601.1,3057.4 3603,3054.9 3635.1,3013.5 3638.4,3009.2 3670.4,2967.9 3673.7,2963.6 3691.4,2940.9 3689.7,2951.5 3677,2967.9 3673.7,2972.1 "
   id="polygon957" />

			</g>

		</g>

		<g
   id="g967">
			<g
   id="g965">
				<polygon
   class="st4"
   points="3638.4,2926.5 3606.3,2967.9 3603,2972.1 3571,3013.5 3567.7,3017.8 3535.7,3059 3532.4,3059 3532.3,3058.9 3530.4,3057.4 3532.3,3054.9 3564.4,3013.5 3567.7,3009.2 3599.7,2967.9 3603,2963.6 3635.1,2922.3 3638.4,2918 3670.4,2876.6 3673.7,2872.4 3705.8,2831 3709.1,2826.7 3709.2,2826.6 3709.2,2826.9 3708.1,2834 3707.5,2837.2 3677,2876.6 3673.7,2880.9 3641.7,2922.3 "
   id="polygon963" />

			</g>

		</g>

		<g
   id="g973">
			<g
   id="g971">
				<path
   class="st4"
   d="m 3496.2,2653.7 -31.3,40.4 -3.3,4.3 -32.1,41.4 -3.3,4.3 -32.1,41.4 -3.3,4.3 -32.1,41.4 -2.1,2.8 -1.1,-6.9 -0.1,-0.1 0.1,-0.1 32,-41.3 3.3,-4.3 32,-41.4 3.3,-4.3 32.1,-41.4 3.3,-4.3 28.2,-36.4 c 2.3,0 4.4,0.1 6.5,0.2 z"
   id="path969" />

			</g>

		</g>

		<g
   id="g979">
			<g
   id="g977">
				<path
   class="st4"
   d="m 3430,2648 -0.4,0.6 -3.3,4.3 -32.1,41.4 -3.3,4.3 -32.1,41.4 -3.3,4.3 -10.7,13.8 -1.1,-7.1 8.5,-11 3.3,-4.3 32,-41.4 3.3,-4.3 32.1,-41.4 1.1,-1.4 c 1.6,0.2 3.3,0.5 5,0.7 z"
   id="path975" />

			</g>

		</g>

		<g
   id="g985">
			<g
   id="g983">
				<path
   class="st4"
   d="m 3369,2635.4 -10.2,13.1 -3.3,4.3 -22.6,29.1 -1.1,-7.1 20.4,-26.3 3.3,-4.3 8.2,-10.5 c 1.7,0.6 3.5,1.2 5.3,1.7 z"
   id="path981" />

			</g>

		</g>

	</g>

	<g
   id="g993">
		<path
   class="st5"
   d="m 3764.9,2543.2 h -92.3 v -28.1 h 56 c 17.5,0 32.1,12 36.3,28.1 z"
   id="path989" />

		<path
   class="st5"
   d="m 3729.2,2515.1 c -26.2,0.3 -49.1,17.8 -56.1,43.1 l -21.3,77.3 c -3,0.5 -6.1,1 -9.2,1.4 -2,0.3 -4,0.6 -6.1,0.9 -18.8,2.6 -39.3,4.5 -61,5.6 -2.2,0.1 -4.3,0.2 -6.5,0.3 -11.9,0.5 -24.2,0.8 -36.7,0.8 -9.6,0 -19.1,-0.2 -28.4,-0.5 -2.3,-0.1 -4.6,-0.2 -6.9,-0.3 -0.9,0 -1.8,-0.1 -2.7,-0.1 l 23.6,-85.4 c 7,-25.5 30.2,-43.1 56.7,-43.1 z"
   id="path991" />

	</g>

</g>
      <g
         id="LAMP">
	<polygon
   class="st6"
   points="3666,848.8 3902.1,1521.2 3037.5,1521.2 3267.3,848.8 "
   id="polygon996" />

	<g
   id="g1014">
		<path
   class="st0"
   d="m 3468.5,768.7 c 0,-28 22.7,-50.7 50.7,-50.7 h 29.3 c 28,0 50.7,22.7 50.7,50.7 v 656.1"
   id="path998" />

		<path
   class="st7"
   d="m 3667.3,1499.8 v 20.3 h -213.8 v -20.3 c 0,-17.3 5.9,-33.3 15.8,-46 13.7,-17.6 35.2,-29 59.2,-29 h 63.7 c 1,0 2.1,0 3.1,0.1 40.1,1.6 72,34.5 72,74.9 z"
   id="path1000" />

		<path
   class="st8"
   d="m 3714.8,851.6 h -494.7 v -15.5 c 0,-37.1 30.1,-67.1 67.1,-67.1 h 360.5 c 37.1,0 67.1,30.1 67.1,67.1 z"
   id="path1002" />

		<line
   class="st9"
   x1="3714.8"
   y1="839.20001"
   x2="3220.1001"
   y2="839.20001"
   id="line1004" />

		<path
   class="st3"
   d="m 3663.1,851.6 c 0,17.7 -11,32.1 -24.7,32.1 h -346.2 c -13.6,0 -24.7,-14.4 -24.7,-32.1 z"
   id="path1006" />

		<path
   class="st7"
   d="m 3599.2,1444.4 c 0,32.1 -29.3,58.2 -65.4,58.2 -32.5,0 -59.5,-21.1 -64.5,-48.8 13.7,-17.6 35.2,-29 59.2,-29 h 63.7 c 1,0 2.1,0 3.1,0.1 2.6,6.1 3.9,12.7 3.9,19.5 z"
   id="path1008" />

		<path
   class="st8"
   d="m 3535.6,1411.1 v 31.4 c 0,6.4 -5.9,11.6 -13.1,11.6 -7.2,0 -13.1,-5.2 -13.1,-11.6 v -31.4 h 0.2 c 1.2,5.5 6.5,9.7 12.8,9.7 6.3,0 11.6,-4.2 12.8,-9.7 z"
   id="path1010" />

		<path
   class="st7"
   d="m 3532.8,1410 c 0,0.7 -0.1,1.4 -0.2,2.1 -0.9,5 -5.1,8.7 -10.2,8.7 -5,0 -9.2,-3.7 -10.2,-8.7 -0.1,-0.7 -0.2,-1.4 -0.2,-2.1 0,-6 4.6,-10.8 10.4,-10.8 5.7,0 10.4,4.9 10.4,10.8 z"
   id="path1012" />

	</g>

</g>
      <g
         id="BOOKS">
	<rect
   x="3158"
   y="1065.4"
   class="st10"
   width="34.200001"
   height="455.79999"
   id="rect1017" />

	<path
   class="st5"
   d="m 3143.7,1521.2 h -58.6 c -6.2,0 -11.2,-5 -11.2,-11.2 v -338.8 c 0,-6.2 5,-11.2 11.2,-11.2 h 58.6 c 6.2,0 11.2,5 11.2,11.2 V 1510 c 0,6.2 -5,11.2 -11.2,11.2 z"
   id="path1019" />

	<path
   class="st0"
   d="m 3332.2,1513.9 h -67.3 c -4.9,0 -9.1,-3.5 -10,-8.3 l -60.4,-313.8 c -1.2,-6.3 3.6,-12.1 10,-12.1 h 67.3 c 4.9,0 9.1,3.5 10,8.3 l 60.4,313.8 c 1.2,6.3 -3.6,12.1 -10,12.1 z"
   id="path1021" />

	<path
   class="st8"
   d="m 3060.5,1521.2 h -317 c -7.4,0 -13.4,-6 -13.4,-13.4 v -64.9 c 0,-7.4 6,-13.4 13.4,-13.4 h 317 c 7.4,0 13.4,6 13.4,13.4 v 64.9 c 0,7.4 -6,13.4 -13.4,13.4 z"
   id="path1023" />

</g>
      <g
         id="NOTES">
	<g
   id="g1048">
		<path
   class="st5"
   d="m 1873.4,408.8 v 206.8 c 0,40.5 -32.9,73.4 -73.4,73.4 h -229.3 c 40.5,0 73.4,-32.8 73.4,-73.4 V 408.8 Z"
   id="path1026" />

		<rect
   x="1749"
   y="388.79999"
   class="st8"
   width="18.5"
   height="44.099998"
   id="rect1028" />

		<g
   id="g1046">
			<g
   id="g1032">
				<path
   class="st6"
   d="m 1806.7,487.4 c -2.6,0 -5.2,-1 -7.3,-2.9 l -7.7,-6.8 c -2.4,-2.1 -5.6,-2.1 -8,0 l -7.3,6.5 c -4.3,3.8 -10.3,3.8 -14.7,0 l -6.7,-5.9 c -2.4,-2.1 -5.6,-2.1 -8,0 l -6.2,5.5 c -4.3,3.8 -10.3,3.8 -14.7,0 l -5.1,-4.5 c -2.4,-2.1 -5.6,-2.1 -8,0 l -5.5,4.9 c -4.3,3.8 -10.3,3.8 -14.7,0 l -5.1,-4.5 c -2.4,-2.1 -5.6,-2.1 -8,0 -1,0.9 -2.6,0.8 -3.5,-0.2 -0.9,-1 -0.8,-2.6 0.2,-3.5 4.3,-3.8 10.3,-3.8 14.7,0 l 5.1,4.5 c 2.4,2.1 5.6,2.1 8,0 l 5.5,-4.9 c 4.3,-3.8 10.3,-3.8 14.7,0 l 5.1,4.5 c 2.4,2.1 5.6,2.1 8,0 l 6.2,-5.5 c 4.3,-3.8 10.3,-3.8 14.7,0 l 6.7,5.9 c 2.4,2.1 5.6,2.1 8,0 l 7.3,-6.5 c 4.3,-3.8 10.3,-3.8 14.7,0 l 7.7,6.8 c 2.4,2.1 5.6,2.1 8,0 l 8,-7.1 c 4.3,-3.8 10.3,-3.8 14.7,0 1,0.9 1.1,2.5 0.2,3.5 -0.9,1 -2.5,1.1 -3.5,0.2 -2.4,-2.1 -5.6,-2.1 -8,0 l -8,7.1 c -2.4,1.9 -4.9,2.9 -7.5,2.9 z"
   id="path1030" />

			</g>

			<g
   id="g1036">
				<path
   class="st6"
   d="m 1806.7,528.5 c -2.6,0 -5.2,-1 -7.3,-2.9 l -7.7,-6.8 c -2.4,-2.1 -5.6,-2.1 -8,0 l -7.3,6.5 c -4.3,3.8 -10.3,3.8 -14.7,0 l -6.7,-5.9 c -2.4,-2.1 -5.6,-2.1 -8,0 l -6.2,5.5 c -4.3,3.8 -10.3,3.8 -14.7,0 l -5.1,-4.5 c -2.4,-2.1 -5.6,-2.1 -8,0 l -5.5,4.9 c -4.3,3.8 -10.3,3.8 -14.7,0 l -5.1,-4.5 c -2.4,-2.1 -5.6,-2.1 -8,0 -1,0.9 -2.6,0.8 -3.5,-0.2 -0.9,-1 -0.8,-2.6 0.2,-3.5 4.3,-3.8 10.3,-3.8 14.7,0 l 5.1,4.5 c 2.4,2.1 5.6,2.1 8,0 l 5.5,-4.9 c 4.3,-3.8 10.3,-3.8 14.7,0 l 5.1,4.5 c 2.4,2.1 5.6,2.1 8,0 l 6.2,-5.5 c 4.3,-3.8 10.3,-3.8 14.7,0 l 6.7,5.9 c 2.4,2.1 5.6,2.1 8,0 l 7.3,-6.5 c 4.3,-3.8 10.3,-3.8 14.7,0 l 7.7,6.8 c 2.4,2.1 5.6,2.1 8,0 l 8,-7.1 c 4.3,-3.8 10.3,-3.8 14.7,0 1,0.9 1.1,2.5 0.2,3.5 -0.9,1 -2.5,1.1 -3.5,0.2 -2.4,-2.1 -5.6,-2.1 -8,0 l -8,7.1 c -2.4,2 -4.9,2.9 -7.5,2.9 z"
   id="path1034" />

			</g>

			<g
   id="g1040">
				<path
   class="st6"
   d="m 1806.7,569.6 c -2.6,0 -5.2,-1 -7.3,-2.9 l -7.7,-6.8 c -2.4,-2.1 -5.6,-2.1 -8,0 l -7.3,6.5 c -4.3,3.8 -10.3,3.8 -14.7,0 l -6.7,-5.9 c -2.4,-2.1 -5.6,-2.1 -8,0 l -6.2,5.5 c -4.3,3.8 -10.3,3.8 -14.7,0 l -5.1,-4.5 c -2.4,-2.1 -5.6,-2.1 -8,0 l -5.5,4.9 c -4.3,3.8 -10.3,3.8 -14.7,0 l -5.1,-4.5 c -2.4,-2.1 -5.6,-2.1 -8,0 -1,0.9 -2.6,0.8 -3.5,-0.2 -0.9,-1 -0.8,-2.6 0.2,-3.5 4.3,-3.8 10.3,-3.8 14.7,0 l 5.1,4.5 c 2.4,2.1 5.6,2.1 8,0 l 5.5,-4.9 c 4.3,-3.8 10.3,-3.8 14.7,0 l 5.1,4.5 c 2.4,2.1 5.6,2.1 8,0 l 6.2,-5.5 c 4.3,-3.8 10.3,-3.8 14.7,0 l 6.7,5.9 c 2.4,2.1 5.6,2.1 8,0 l 7.3,-6.5 c 4.3,-3.8 10.3,-3.8 14.7,0 l 7.7,6.8 c 2.4,2.1 5.6,2.1 8,0 l 8,-7.1 c 4.3,-3.8 10.3,-3.8 14.7,0 1,0.9 1.1,2.5 0.2,3.5 -0.9,1 -2.5,1.1 -3.5,0.2 -2.4,-2.1 -5.6,-2.1 -8,0 l -8,7.1 c -2.4,2 -4.9,2.9 -7.5,2.9 z"
   id="path1038" />

			</g>

			<g
   id="g1044">
				<path
   class="st6"
   d="m 1806.7,610.8 c -2.6,0 -5.2,-1 -7.3,-2.9 l -7.7,-6.8 c -2.4,-2.1 -5.6,-2.1 -8,0 l -7.3,6.5 c -4.3,3.8 -10.3,3.8 -14.7,0 l -6.7,-5.9 c -2.4,-2.1 -5.6,-2.1 -8,0 l -6.2,5.5 c -4.3,3.8 -10.3,3.8 -14.7,0 l -5.1,-4.5 c -2.4,-2.1 -5.6,-2.1 -8,0 l -5.5,4.9 c -4.3,3.8 -10.3,3.8 -14.7,0 l -5.1,-4.5 c -2.4,-2.1 -5.6,-2.1 -8,0 -1,0.9 -2.6,0.8 -3.5,-0.2 -0.9,-1 -0.8,-2.6 0.2,-3.5 4.3,-3.8 10.3,-3.8 14.7,0 l 5.1,4.5 c 2.4,2.1 5.6,2.1 8,0 l 5.5,-4.9 c 4.3,-3.8 10.3,-3.8 14.7,0 l 5.1,4.5 c 2.4,2.1 5.6,2.1 8,0 l 6.2,-5.5 c 4.3,-3.8 10.3,-3.8 14.7,0 l 6.7,5.9 c 2.4,2.1 5.6,2.1 8,0 l 7.3,-6.5 c 4.3,-3.8 10.3,-3.8 14.7,0 l 7.7,6.8 c 2.4,2.1 5.6,2.1 8,0 l 8,-7.1 c 4.3,-3.8 10.3,-3.8 14.7,0 1,0.9 1.1,2.5 0.2,3.5 -0.9,1 -2.5,1.1 -3.5,0.2 -2.4,-2.1 -5.6,-2.1 -8,0 l -8,7.1 c -2.4,1.9 -4.9,2.9 -7.5,2.9 z"
   id="path1042" />

			</g>

		</g>

	</g>

	<g
   id="g1072">
		<rect
   x="1949.1"
   y="408.79999"
   class="st4"
   width="160.39999"
   height="160.39999"
   id="rect1050" />

		
			<rect
   x="1948.1"
   y="384.5"
   transform="matrix(0.6286,0.7778,-0.7778,0.6286,1047.2175,-1369.3782)"
   class="st6"
   width="18.5"
   height="54.5"
   id="rect1052" />

		
			<rect
   x="2093.3999"
   y="384.5"
   transform="matrix(-0.6286,0.7778,-0.7778,-0.6286,3744.4258,-964.7594)"
   class="st6"
   width="18.5"
   height="54.5"
   id="rect1054" />

		<g
   id="g1058">
			<rect
   x="1978.3"
   y="446.79999"
   class="st3"
   width="97.300003"
   height="6"
   id="rect1056" />

		</g>

		<g
   id="g1062">
			<rect
   x="1978.3"
   y="472.70001"
   class="st3"
   width="97.300003"
   height="6"
   id="rect1060" />

		</g>

		<g
   id="g1066">
			<rect
   x="1978.3"
   y="498.70001"
   class="st3"
   width="97.300003"
   height="6"
   id="rect1064" />

		</g>

		<g
   id="g1070">
			<rect
   x="1978.3"
   y="524.59998"
   class="st3"
   width="97.300003"
   height="6"
   id="rect1068" />

		</g>

	</g>

</g>
      <g
         id="COMPUTER">
	<g
   id="g1079">
		<polygon
   class="st11"
   points="2639.6,1337.7 2668.8,1402.2 2722.6,1521.2 2348.7,1521.2 2421.1,1361.2 2431.7,1337.7 "
   id="polygon1075" />

		<polygon
   class="st4"
   points="2668.8,1402.2 2421.1,1361.2 2431.7,1337.7 2639.6,1337.7 "
   id="polygon1077" />

	</g>

	<path
   class="st11"
   d="m 2976.3,1337.7 h -880.1 c -32.3,0 -58.4,-26.2 -58.4,-58.4 V 704.8 c 0,-32.3 26.2,-58.4 58.4,-58.4 h 880.1 c 32.3,0 58.4,26.2 58.4,58.4 v 574.4 c 0,32.3 -26.2,58.5 -58.4,58.5 z"
   id="path1081" />

	<g
   id="g1127">
		<path
   class="st4"
   d="m 2712.6,1297.1 h -352.8 c -17.2,0 -31.1,-13.9 -31.1,-31.1 v -42.7 c 0,-17.2 13.9,-31.1 31.1,-31.1 h 352.8 c 17.2,0 31.1,13.9 31.1,31.1 v 42.7 c 0,17.2 -14,31.1 -31.1,31.1 z"
   id="path1083" />

		<g
   id="g1093">
			<g
   id="g1087">
				<path
   class="st3"
   d="m 2620,1268.6 h -23.8 c -5.9,0 -10.7,-4.8 -10.7,-10.7 v -18.6 c 0,-5.9 4.8,-10.7 10.7,-10.7 h 23.8 c 5.9,0 10.7,4.8 10.7,10.7 v 18.6 c 0,5.9 -4.8,10.7 -10.7,10.7 z"
   id="path1085" />

			</g>

			<g
   id="g1091">
				<path
   class="st3"
   d="m 2650.3,1265.5 -8.8,-5.6 c -2.4,-1.5 -3.9,-4.2 -3.9,-7.1 v -8.4 c 0,-2.9 1.5,-5.6 3.9,-7.1 l 8.8,-5.6 c 2.1,-1.3 4.8,0.2 4.8,2.6 v 28.5 c 0.1,2.5 -2.7,4 -4.8,2.7 z"
   id="path1089" />

			</g>

		</g>

		<g
   id="g1111">
			<g
   id="g1097">
				<path
   class="st3"
   d="m 2529.8,1259.2 h -2.2 c -8.7,0 -15.8,-7.1 -15.8,-15.8 v -9.3 c 0,-0.8 0.7,-1.5 1.5,-1.5 h 30.7 c 0.8,0 1.5,0.7 1.5,1.5 v 9.3 c 0.1,8.7 -7,15.8 -15.7,15.8 z m -15,-23.6 v 7.8 c 0,7 5.7,12.8 12.8,12.8 h 2.2 c 7,0 12.8,-5.7 12.8,-12.8 v -7.8 z"
   id="path1095" />

			</g>

			<g
   id="g1101">
				<path
   class="st3"
   d="m 2528.7,1276.5 c -0.8,0 -1.5,-0.7 -1.5,-1.5 v -11.3 c 0,-0.8 0.7,-1.5 1.5,-1.5 0.8,0 1.5,0.7 1.5,1.5 v 11.3 c 0,0.8 -0.7,1.5 -1.5,1.5 z"
   id="path1099" />

			</g>

			<g
   id="g1105">
				<path
   class="st3"
   d="m 2536.6,1276.5 h -15.7 c -0.8,0 -1.5,-0.7 -1.5,-1.5 0,-0.8 0.7,-1.5 1.5,-1.5 h 15.7 c 0.8,0 1.5,0.7 1.5,1.5 0,0.8 -0.7,1.5 -1.5,1.5 z"
   id="path1103" />

			</g>

			<g
   id="g1109">
				<path
   class="st3"
   d="m 2529.4,1252.2 h -1.4 c -5,0 -9,-4 -9,-9 V 1225 c 0,-5 4,-9 9,-9 h 1.4 c 5,0 9,4 9,9 v 18.2 c 0,5 -4,9 -9,9 z"
   id="path1107" />

			</g>

		</g>

		<g
   id="g1125">
			<g
   id="g1115">
				<path
   class="st3"
   d="m 2437.4,1240.9 -0.1,0.1 c -1.9,2.3 -1.3,5.8 1.2,7.9 l 9.2,7.4 c 2.5,2 6.1,1.8 8,-0.5 l 0.1,-0.1 c 1.9,-2.3 5.5,-2.4 7.9,-0.3 l 8.3,7.5 c 2.6,2.4 2.6,6.4 0,8.2 -8.7,6.1 -20,3.9 -29.3,-3.6 l -14,-11.3 c -9.3,-7.6 -13.8,-18.2 -9.7,-28 1.3,-3 5.2,-3.8 8,-1.7 l 9.1,6.6 c 2.5,2 3.1,5.5 1.3,7.8 z"
   id="path1113" />

			</g>

			<g
   id="g1119">
				<path
   class="st3"
   d="m 2461.8,1246.7 c -0.8,0 -1.4,-0.6 -1.5,-1.4 -0.5,-7.2 -6.7,-12.7 -13.9,-12.2 -0.8,0 -1.5,-0.6 -1.6,-1.4 -0.1,-0.8 0.6,-1.5 1.4,-1.6 8.9,-0.6 16.5,6.2 17.1,15 0.1,0.8 -0.5,1.5 -1.5,1.6 0.1,0 0.1,0 0,0 z"
   id="path1117" />

			</g>

			<g
   id="g1123">
				<path
   class="st3"
   d="m 2471.2,1245.2 c -0.8,0 -1.4,-0.6 -1.5,-1.4 -0.4,-6 -3.1,-11.6 -7.7,-15.6 -4.6,-4 -10.4,-6 -16.4,-5.6 -0.8,0 -1.5,-0.6 -1.6,-1.4 -0.1,-0.8 0.6,-1.5 1.4,-1.6 6.8,-0.4 13.4,1.8 18.6,6.3 5.2,4.5 8.2,10.8 8.7,17.6 0.1,1 -0.6,1.7 -1.5,1.7 0.1,0 0.1,0 0,0 z"
   id="path1121" />

			</g>

		</g>

	</g>

	<g
   id="g1135">
		<circle
   class="st12"
   cx="2809.3999"
   cy="690.09998"
   r="10.4"
   id="circle1129" />

		<circle
   class="st12"
   cx="2851.8999"
   cy="690.09998"
   r="10.4"
   id="circle1131" />

		<circle
   class="st12"
   cx="2894.5"
   cy="690.09998"
   r="10.4"
   id="circle1133" />

	</g>

	<path
   class="st0"
   d="m 2499.2,1166.6 h -313.4 c -9.6,0 -17.3,-7.8 -17.3,-17.3 V 981.5 c 0,-9.6 7.8,-17.3 17.3,-17.3 h 313.4 c 9.6,0 17.3,7.8 17.3,17.3 v 167.8 c 0,9.5 -7.7,17.3 -17.3,17.3 z"
   id="path1137" />

	<g
   id="g1175">
		<path
   class="st10"
   d="m 2894.5,1166.6 h -313.4 c -9.6,0 -17.3,-7.8 -17.3,-17.3 V 981.5 c 0,-9.6 7.8,-17.3 17.3,-17.3 h 313.4 c 9.6,0 17.3,7.8 17.3,17.3 v 167.8 c 0,9.5 -7.7,17.3 -17.3,17.3 z"
   id="path1139" />

		<g
   id="g1173">
			<path
   class="st8"
   d="m 2835.3,1166.1 h -204.8 c 20.7,-25.5 52.3,-41.9 87.7,-41.9 h 29.4 c 35.4,0.1 67,16.4 87.7,41.9 z"
   id="path1141" />

			<path
   class="st3"
   d="m 2726.5,1124.3 c -2,15.1 -14.9,26.7 -30.5,26.7 -11.5,0 -21.5,-6.3 -26.8,-15.6 14.8,-7.1 31.4,-11.1 48.9,-11.1 z"
   id="path1143" />

			<path
   class="st3"
   d="m 2787,1131.3 c -4.5,11.5 -15.6,19.6 -28.7,19.6 -15.6,0 -28.5,-11.6 -30.5,-26.7 h 19.9 c 13.8,0.1 27,2.5 39.3,7.1 z"
   id="path1145" />

			<path
   class="st13"
   d="m 2764.5,1079.7 v 45.4 c 0,7.1 -14.2,12.8 -31.6,12.8 -3.2,0 -6.3,-0.2 -9.2,-0.5 -13,-1.6 -22.4,-6.5 -22.4,-12.3 v -45.4 z"
   id="path1147" />

			<path
   class="st14"
   d="m 2760.3,1089 c 0,19.7 -17.2,43.6 -36.6,48.3 -13,-1.6 -22.4,-6.5 -22.4,-12.3 v -45.4 h 58 z"
   id="path1149" />

			<path
   class="st13"
   d="m 2780.7,1073.9 v 1.1 c 0,7.7 -6.3,14 -14,14 h -13.4 c -6.1,13.1 -19.4,22.1 -34.8,22.1 h -2.6 c -17.2,0 -31.1,-13.9 -31.1,-31.1 v -32.1 c 19.9,1.3 45.2,-16.1 45.2,-16.1 8.3,32.1 32,31.7 43,29.6 4.5,2.3 7.7,7.1 7.7,12.5 z"
   id="path1151" />

			<g
   id="g1155">
				<path
   class="st14"
   d="m 2761,1078.8 c -0.8,0 -1.5,-0.7 -1.5,-1.5 0,-6.4 5.2,-11.6 11.6,-11.6 0.8,0 1.5,0.7 1.5,1.5 0,0.8 -0.7,1.5 -1.5,1.5 -4.7,0 -8.6,3.8 -8.6,8.6 0,0.8 -0.7,1.5 -1.5,1.5 z"
   id="path1153" />

			</g>

			<path
   class="st6"
   d="m 2764.5,1089 h 2.2 c 7.7,0 14,-6.3 14,-14 v -1.1 c 0,-5.5 -3.1,-10.2 -7.7,-12.5 -3,0.6 -7.1,1 -11.5,0.7 -11.4,-0.9 -25.5,-7.1 -31.5,-30.3 0,0 -25.3,17.4 -45.2,16.1 -3.7,-0.2 -7.2,-1.1 -10.3,-2.9 -16.5,-9.4 23.4,-53.4 69.2,-46.8 36.6,5.3 35.8,49.1 35.1,59.5 1.8,-0.2 3.6,-0.3 5.4,-0.3 26.8,0 48.5,20.6 48.5,46.1 0,16.6 -9.2,31.2 -23.1,39.3 -13.3,-8.8 -28.6,-14.8 -45.1,-17.3 z"
   id="path1157" />

			<g
   id="g1161">
				<path
   class="st14"
   d="m 2705,1079.9 c -0.2,0 -0.4,0 -0.5,-0.1 -0.8,-0.3 -1.2,-1.2 -0.9,-1.9 0,-0.1 3,-8.2 -2,-16.9 -4.3,-7.5 -13.8,-6.2 -14.2,-6.1 -0.8,0.1 -1.6,-0.4 -1.7,-1.3 -0.1,-0.8 0.4,-1.6 1.3,-1.7 0.5,-0.1 11.9,-1.7 17.3,7.6 5.7,9.9 2.3,19.1 2.2,19.4 -0.4,0.6 -0.9,1 -1.5,1 z"
   id="path1159" />

			</g>

			<g
   id="g1165">
				<path
   class="st14"
   d="m 2739.1,1060.9 c -0.3,0 -0.6,-0.1 -0.9,-0.3 -8.7,-6.7 -20.3,-5.9 -20.4,-5.9 -0.8,0.1 -1.5,-0.6 -1.6,-1.4 -0.1,-0.8 0.6,-1.5 1.4,-1.6 0.5,0 12.8,-0.9 22.4,6.5 0.7,0.5 0.8,1.4 0.3,2.1 -0.4,0.4 -0.8,0.6 -1.2,0.6 z"
   id="path1163" />

			</g>

			<path
   class="st3"
   d="m 2699.8,1083.3 c 0,0 2.4,15.8 18.7,0.4 0,0 -11.4,1.5 -18.7,-0.4 z"
   id="path1167" />

			<ellipse
   class="st14"
   cx="2724.8999"
   cy="1065.3"
   rx="2.0999999"
   ry="4.6999998"
   id="ellipse1169" />

			<ellipse
   class="st14"
   cx="2693.7"
   cy="1065.3"
   rx="1.8"
   ry="3.9000001"
   id="ellipse1171" />

		</g>

	</g>

	<g
   id="g1207">
		<path
   class="st4"
   d="m 2890.6,937.3 h -313.4 c -9.6,0 -17.3,-7.8 -17.3,-17.3 V 752.2 c 0,-9.6 7.8,-17.3 17.3,-17.3 h 313.4 c 9.6,0 17.3,7.8 17.3,17.3 V 920 c 0,9.5 -7.8,17.3 -17.3,17.3 z"
   id="path1177" />

		<g
   id="g1205">
			<path
   class="st6"
   d="m 2826.8,937.3 h -191.3 c 19.3,-25.7 48.8,-42.1 81.9,-42.1 h 27.5 c 33.1,0 62.6,16.4 81.9,42.1 z"
   id="path1179" />

			<path
   class="st3"
   d="m 2721,928.7 h 4.3 c 18.7,0 33.9,-15.2 33.9,-33.9 v -24.1 c 0,-0.1 -0.1,-0.2 -0.2,-0.2 h -62.9 c -0.1,0 -0.2,0.1 -0.2,0.2 v 33.1 c 0.1,13.8 11.3,24.9 25.1,24.9 z"
   id="path1181" />

			<path
   class="st6"
   d="M 2696,870.5 V 903 c 0,0.4 0,0.9 0,1.3 0.9,18.6 47.2,11.3 61.1,-33.8 z"
   id="path1183" />

			<path
   class="st3"
   d="m 2777.5,856 c 0,4 -1.6,7.6 -4.3,10.3 -2.6,2.6 -6.2,4.2 -10.3,4.2 h -13.7 c -4.9,13 -17.5,22.2 -32.2,22.2 h -10.7 c -14.9,0 -26.9,-12.1 -26.9,-26.9 v -42 c 15.4,1.3 28.4,-11.1 28.9,-11.6 -0.2,0.7 -8,22.7 9.7,23.9 17.6,1.2 23.4,-11.5 23.6,-12 0,0.5 0.1,17.5 14,18.4 v 0 h 7.3 c 8.1,0 14.6,5.5 14.6,13.5 z"
   id="path1185" />

			<path
   class="st8"
   d="m 2756.9,842.5 h -0.3 c -0.3,0 -0.6,0 -0.9,0 -13.9,-0.9 -14,-17.8 -14,-18.4 -0.2,0.5 -6.1,13.2 -23.6,12 -17.6,-1.2 -9.9,-23.2 -9.7,-23.9 -0.5,0.4 -13.5,12.9 -28.9,11.6 -3.4,-0.3 -6.8,-1.2 -10.3,-3.1 -22.5,-12.2 -8,-37.3 14.1,-37.6 17.6,-0.2 25.1,9.4 25.1,9.4 0,0 3.8,-19.7 25.4,-16.3 21.6,3.4 17.7,22.5 17.7,22.5 0,0 18.1,-8.4 28.1,7.1 11.8,18.2 -5.9,36.7 -22.7,36.7 z"
   id="path1187" />

			<g
   id="g1191">
				<path
   class="st6"
   d="m 2697.8,860.8 c -0.1,0 -0.2,0 -0.4,0 -0.8,-0.2 -1.3,-1 -1.1,-1.8 0,-0.1 2.4,-10 -1.9,-18.1 -4.7,-8.6 -12.8,-7.2 -13.1,-7.2 -0.8,0.1 -1.6,-0.4 -1.7,-1.2 -0.2,-0.8 0.4,-1.6 1.2,-1.7 0.1,0 10.6,-1.9 16.3,8.7 4.9,9.1 2.3,19.8 2.2,20.2 -0.3,0.6 -0.9,1.1 -1.5,1.1 z"
   id="path1189" />

			</g>

			<g
   id="g1195">
				<path
   class="st6"
   d="m 2703.1,872.4 c -2.1,0 -4,-0.3 -5.4,-0.7 -0.8,-0.2 -1.3,-1 -1.1,-1.8 0.2,-0.8 1,-1.3 1.8,-1.1 v 0 c 0.5,0.1 11.9,3.1 16.1,-5.7 0.4,-0.7 1.2,-1.1 2,-0.7 0.8,0.4 1.1,1.2 0.7,2 -2.9,6.3 -9,8 -14.1,8 z"
   id="path1193" />

			</g>

			<ellipse
   class="st6"
   cx="2717.6001"
   cy="844.09998"
   rx="2.0999999"
   ry="4.6999998"
   id="ellipse1197" />

			<ellipse
   class="st6"
   cx="2686.5"
   cy="844.09998"
   rx="1.8"
   ry="3.9000001"
   id="ellipse1199" />

			<g
   id="g1203">
				<path
   class="st6"
   d="m 2755.4,861.5 c -0.8,0 -1.5,-0.7 -1.5,-1.5 0,-6.4 5.2,-11.6 11.6,-11.6 0.8,0 1.5,0.7 1.5,1.5 0,0.8 -0.7,1.5 -1.5,1.5 -4.7,0 -8.6,3.8 -8.6,8.6 0,0.8 -0.7,1.5 -1.5,1.5 z"
   id="path1201" />

			</g>

		</g>

	</g>

	<g
   id="g1259">
		<path
   class="st6"
   d="m 2495.2,937.3 h -313.4 c -9.6,0 -17.3,-7.8 -17.3,-17.3 V 752.2 c 0,-9.6 7.8,-17.3 17.3,-17.3 h 313.4 c 9.6,0 17.3,7.8 17.3,17.3 V 920 c 0.1,9.5 -7.7,17.3 -17.3,17.3 z"
   id="path1209" />

		<g
   id="g1257">
			<g
   id="g1231">
				<path
   class="st3"
   d="m 2419.5,937.3 h -194.4 c 19.6,-29.3 49.6,-48 83.2,-48 h 28 c 33.6,0 63.5,18.7 83.2,48 z"
   id="path1211" />

				<g
   id="g1229">
					<g
   id="g1215">
						<path
   class="st15"
   d="m 2419.5,937.3 h -194.4 c 0.6,-0.9 1.2,-1.7 1.8,-2.6 0.1,-0.2 0.2,-0.4 0.4,-0.5 h 190.1 c 0.1,0.2 0.2,0.3 0.4,0.5 0.5,0.8 1.1,1.7 1.7,2.6 z"
   id="path1213" />

					</g>

					<g
   id="g1219">
						<path
   class="st15"
   d="m 2411.3,926.4 h -178 c 0.9,-1.1 1.8,-2.1 2.7,-3.1 h 172.6 c 0.9,1 1.8,2 2.7,3.1 z"
   id="path1217" />

					</g>

					<g
   id="g1223">
						<path
   class="st15"
   d="m 2400.3,915 h -156 c 1.2,-1.1 2.4,-2.1 3.6,-3.1 h 148.8 c 1.2,1 2.4,2 3.6,3.1 z"
   id="path1221" />

					</g>

					<g
   id="g1227">
						<path
   class="st15"
   d="M 2383.5,902.5 H 2261 c 1.8,-1.1 3.7,-2.1 5.6,-3.1 h 111.2 c 2,1 3.8,2 5.7,3.1 z"
   id="path1225" />

					</g>

				</g>

			</g>

			<g
   id="g1237">
				<path
   class="st16"
   d="m 2353.3,851.9 v 44.7 c 0,4.6 -14.2,8.3 -31.6,8.3 -17,0 -30.9,-3.5 -31.6,-8 0,-0.1 0,-0.2 0,-0.3 v -44.7 z"
   id="path1233" />

				<path
   class="st17"
   d="m 2352.9,851.9 v 1 c 0,22 -27.3,47.2 -47,50.1 -3.1,0.5 -12.7,-1.4 -15.7,-6.2 0,-0.1 0,-0.2 0,-0.3 v -44.7 h 62.7 z"
   id="path1235" />

			</g>

			<path
   class="st16"
   d="m 2370.5,837.8 v 1 c 0,7.7 -6.3,14 -14,14 h -12.1 c -3.9,14 -16.7,24.2 -31.9,24.2 h -12.9 c -14.3,0 -26,-11.6 -26,-26 v -56.9 c 24,6.7 66.9,0.4 66.9,0.4 0,0 -3.9,14 3.5,29.2 h 12.6 c 7.6,0.1 13.9,6.4 13.9,14.1 z"
   id="path1239" />

			<path
   class="st18"
   d="m 2356,822 h -11.4 c -9.7,-16.4 -4.2,-27.3 -4.2,-27.3 0,0 -42.9,6.2 -66.9,-0.4 -10.9,-3 -17.9,-8.7 -15.3,-18.8 8.3,-32.4 97.7,2.1 103.9,13.8 6.3,11.7 -6.1,32.7 -6.1,32.7 z"
   id="path1241" />

			<g
   id="g1255">
				<path
   class="st17"
   d="m 2311.6,852.7 c -0.3,0.3 -0.6,0.4 -1,0.4 -0.4,0 -0.8,-0.2 -1.1,-0.5 l -1.4,-1.5 c -4.3,3.8 -8.4,5.7 -12.2,5.7 -0.4,0 -0.8,0 -1.1,-0.1 -4.2,-0.4 -6.3,-3.2 -6.4,-3.3 -0.5,-0.7 -0.4,-1.6 0.3,-2.1 0.7,-0.5 1.6,-0.4 2.1,0.3 0.1,0.1 1.5,1.9 4.4,2.2 3.2,0.3 6.9,-1.4 10.9,-4.9 l -0.8,-0.9 c -0.6,-0.6 -0.5,-1.6 0.1,-2.1 0.6,-0.6 1.6,-0.5 2.1,0.1 l 4.2,4.6 c 0.6,0.6 0.5,1.5 -0.1,2.1 z"
   id="path1243" />

				<path
   class="st17"
   d="m 2326.8,822.9 c -0.4,0 -0.8,-0.1 -1.1,-0.4 -8.8,-8.6 -20,-6.9 -20.1,-6.9 -0.8,0.1 -1.6,-0.4 -1.7,-1.2 -0.1,-0.8 0.4,-1.6 1.2,-1.7 0.5,-0.1 12.8,-2.1 22.7,7.7 0.6,0.6 0.6,1.5 0,2.1 -0.2,0.3 -0.6,0.4 -1,0.4 z"
   id="path1245" />

				<path
   class="st17"
   d="m 2292.7,843.9 c -0.1,0 -0.3,0 -0.4,-0.1 -0.8,-0.2 -1.2,-1.1 -1,-1.9 0,-0.1 3.1,-10.3 -1.9,-19 -4.3,-7.5 -14,-5.2 -14.1,-5.1 -0.8,0.2 -1.6,-0.3 -1.8,-1.1 -0.2,-0.8 0.3,-1.6 1.1,-1.8 4.1,-1 13.1,-1 17.4,6.6 5.7,9.9 2.4,20.9 2.2,21.4 -0.3,0.6 -0.8,1 -1.5,1 z"
   id="path1247" />

				<ellipse
   class="st17"
   cx="2281.5"
   cy="828.29999"
   rx="1.8"
   ry="3.9000001"
   id="ellipse1249" />

				<ellipse
   class="st17"
   cx="2312.6001"
   cy="828.29999"
   rx="2.0999999"
   ry="4.6999998"
   id="ellipse1251" />

				<path
   class="st17"
   d="m 2348.7,842.9 c -0.8,0 -1.5,-0.7 -1.5,-1.5 0,-6.5 5.3,-11.8 11.8,-11.8 0.8,0 1.5,0.7 1.5,1.5 0,0.8 -0.7,1.5 -1.5,1.5 -4.9,0 -8.8,3.9 -8.8,8.8 0,0.8 -0.6,1.5 -1.5,1.5 z"
   id="path1253" />

			</g>

		</g>

	</g>

</g>
      <g
         id="WOMAN">
	<g
   id="LEGS">
		<g
   id="RIGHT_LEG">
			<g
   id="g1266">
				<path
   class="st13"
   d="m 2863.5,2729.4 c -2.7,-0.8 -4.2,-1.2 -4.2,-1.2 l -32.7,107.1 -123.1,-32.3 c -1,-0.9 -1.5,-1.4 -1.5,-1.4 0,0 -498.5,-390.7 -524.7,-578.2 C 2151.2,2035.9 2360,1858 2360,1858 c 0,0 445.3,841.7 500.4,869.2 1.1,0.6 2.2,1.3 3.1,2.2 z"
   id="path1262" />

				<path
   class="st14"
   d="m 2465.4,2054.9 c -15.6,83.5 -70.4,252.6 -127.1,416.2 -84,-90.5 -151.8,-181.8 -161,-247.8 -16.6,-118.8 61.3,-233.9 120.5,-302.1 21.7,-17.4 45.1,-33.4 70.4,-47.7 15.5,29.1 51.4,96.5 97.2,181.4 z"
   id="path1264" />

			</g>

			<g
   id="g1282">
				<path
   class="st7"
   d="m 3143.3,2801.5 -183.1,117.5 -53.1,-8 -48.9,31 15.8,32.4 -80.5,51.7 c -106.7,-97.1 -91.6,-223.4 -91.6,-223.4 l 124.6,32.7 32.7,-107.1 c 0,0 111.9,32.7 194.5,29.9 82.8,-2.8 89.6,43.3 89.6,43.3 z"
   id="path1268" />

				<path
   class="st19"
   d="m 2935.2,2742.6 c 0,0 -7.7,-81.4 -27,-76.3 -19.3,5.2 4.9,86.4 26.6,77.5 21.7,-8.9 43.4,-66.6 43.4,-66.6"
   id="path1270" />

				<polyline
   class="st19"
   points="2721,2918.9 2843.7,2920.8 2904.6,2884.4 2962.4,2893.7 3135.7,2785.5     "
   id="polyline1272" />

				<g
   id="g1280">
					<line
   class="st19"
   x1="2909.8"
   y1="2738"
   x2="2898.3999"
   y2="2791.1001"
   id="line1274" />

					<line
   class="st19"
   x1="2934.6001"
   y1="2744"
   x2="2923.2"
   y2="2797.1001"
   id="line1276" />

					<line
   class="st19"
   x1="2960.5"
   y1="2748.3"
   x2="2949.1001"
   y2="2801.3999"
   id="line1278" />

				</g>

			</g>

		</g>

		<g
   id="LEFT_LEG">
			<path
   class="st13"
   d="m 2317.7,1817.1 c 0,0 73.3,34.2 73.3,159.6 0,121.2 -279.8,863.4 -279.8,863.4 l -86.1,73 -87.4,-95.7 c 42.7,-40.6 -79.9,-774.6 380,-1000.3 z"
   id="path1285" />

			<g
   id="g1301">
				<path
   class="st7"
   d="m 2309.9,3055.3 -217.6,0.2 -40.4,-35.4 -57.9,-0.3 -4.2,35.8 -85.3,0.1 c -46.4,-144.4 33.6,-238.4 33.6,-238.4 l 86.8,95.6 86.7,-72.9 c 0,0 75.2,88.2 146.2,130.4 71.2,42.3 52.1,84.9 52.1,84.9 z"
   id="path1287" />

				<path
   class="st19"
   d="m 2161.2,2891.4 c 0,0 85.4,-55.1 61.1,-76.2 -24.3,-21.1 -73.2,70.5 -59.9,77.8 13.3,7.3 105.4,-20.4 105.4,-20.4"
   id="path1289" />

				<polyline
   class="st19"
   points="1893,2928 1995.1,2992.4 2066,2992.4 2110.9,3030.1 2311.6,3030.1     "
   id="polyline1291" />

				<g
   id="g1299">
					<line
   class="st19"
   x1="2142.2"
   y1="2870.6001"
   x2="2103.8"
   y2="2909"
   id="line1293" />

					<line
   class="st19"
   x1="2159.8"
   y1="2889.1001"
   x2="2121.3999"
   y2="2927.5"
   id="line1295" />

					<line
   class="st19"
   x1="2179.2"
   y1="2906.7"
   x2="2140.8"
   y2="2945.1001"
   id="line1297" />

				</g>

			</g>

		</g>

	</g>

	<g
   id="SKIRT">
		<path
   class="st8"
   d="m 2317.7,1817.1 c -172.9,84.8 -263.5,241.6 -311.4,406.3 h -524.7 c -134.3,0 -234.4,-123.9 -206.1,-255.2 l 38.5,-178.8 h 912.3 c 33.8,0 65.2,10.2 91.4,27.7 z"
   id="path1305" />

		<polygon
   class="st13"
   points="2117,1988.1 2089,2034 1928.1,1988.5 "
   id="polygon1307" />

		<path
   class="st20"
   d="m 2318.7,1816.1 c -86,42.2 -151.6,102.2 -201.8,172.1 h -478.7 c -86.3,0 -150.7,-79.3 -133.1,-163.8 l 7.3,-35"
   id="path1309" />

		<path
   class="st20"
   d="m 2007,2223.3 c 19.1,-65.7 44.9,-130.2 80,-189.3 l -158.9,-45.6"
   id="path1311" />

	</g>

	<g
   id="BLOUSE">
		<path
   class="st10"
   d="m 1191.4,1309.1 96.1,377 h -179.3 c -104.4,0 -171.6,-110.9 -123.2,-203.4 l 137.7,-263.3 c 39,-74.5 116.1,-121.2 200.2,-121.2 h 32.5 c -110.4,-0.1 -191.3,103.9 -164,210.9 z"
   id="path1314" />

		<path
   class="st10"
   d="m 2298,1211.3 c 56.5,0 103.5,-7.5 114.9,-18 l -175.3,380 c -31.7,68.8 -100.6,112.8 -176.3,112.8 -22.2,0 -44,-3.8 -64.6,-11.1 -20.6,-7.3 -40,-18 -57.3,-32 l -110.5,-89.2 c 0,0 -11,64.7 -89.5,81.2 v 154.2 H 1313.9 L 1191.4,1309 c -27.3,-107 53.6,-211.1 164,-211.1 h 297.9 c 26.3,0 52.2,3.3 77.2,9.7 68.4,17.4 129.8,57.6 173.2,115.2 l 145.6,193.2 130.8,-228.6 v 0 c 0,0.2 -0.1,0.5 -0.1,0.7 0.1,13.3 53,23.2 118,23.2 z"
   id="path1316" />

		<line
   class="st20"
   x1="1190.4"
   y1="1309.1"
   x2="1284.5"
   y2="1689.1"
   id="line1318" />

		<line
   class="st20"
   x1="1829.9"
   y1="1558.9"
   x2="1746.3"
   y2="1469.9"
   id="line1320" />

		<path
   class="st8"
   d="m 2415.5,1187.7 -2.6,5.6 c -11.4,10.6 -58.4,18 -114.9,18 -65,0 -117.9,-9.9 -117.9,-23 0,-0.2 0,-0.5 0.1,-0.7 1.8,-12.8 54,-23.8 117.9,-23.8 63.8,0 115.6,11 117.4,23.9 0,-0.1 0,-0.1 0,0 z"
   id="path1322" />

	</g>

	<g
   id="ARM">
		<path
   class="st13"
   d="m 2467.9,995.7 c 0,5.7 -1.4,11.3 -4,16.2 -2.6,4.9 -6.4,9.2 -11.1,12.5 l -2.3,1.6 -17.9,95.5 c -2.9,15.5 -12.1,29.2 -25.4,37.7 l -24.5,15.6 -19.4,12.4 -9,21.5 c -16.7,1.7 -35.8,2.7 -56.2,2.7 -20.6,0 -40,-1 -56.9,-2.8 v -148.1 c 0,-6.4 1.4,-12.7 4.1,-18.5 l 32.6,-70.2 c 0,0 35.6,8.8 19.2,52.5 -14.9,39.7 19.1,29.5 38.2,22.4 17.1,-6.4 91.8,-44.4 121,-58.3 5.4,-2.6 11.6,1.4 11.6,7.3 z"
   id="path1325" />

		<g
   id="g1333">
			<path
   class="st21"
   d="m 2436.7,1085.2 c -2.9,15.5 -12.1,29.1 -25.4,37.6 l -43.9,28"
   id="path1327" />

			<path
   class="st21"
   d="m 2443.9,1044.7 c -2.9,15.5 -12.1,29.1 -25.4,37.6 l -43.9,28"
   id="path1329" />

			<line
   class="st21"
   x1="2447.3"
   y1="1027.1"
   x2="2376.7"
   y2="1071.9"
   id="line1331" />

		</g>

		<path
   class="st14"
   d="m 2386.5,1172.3 -3.9,2.5 -19.4,12.4 -9,21.5 c -16.7,1.7 -35.8,2.7 -56.2,2.7 -20.6,0 -40,-1 -56.9,-2.8 V 1167 c 16.9,-2 36.3,-3.1 56.9,-3.1 35.3,-0.1 66.9,3.2 88.5,8.4 z"
   id="path1335" />

	</g>

	<g
   id="HEAD">
		<g
   id="NECK">
			<path
   class="st13"
   d="m 1721.2,1105.3 c -14.5,19.5 -68.5,65.4 -250.3,65.4 -233.9,0 -84.2,-72.4 -84.2,-72.4 l 99.2,-165.7 106.4,65.3 v 52.5 c 0,26.5 21.5,47.9 47.9,47.9 h 6.9 c 24.8,-0.1 50.4,1 74.1,7 z"
   id="path1338" />

			<polygon
   class="st14"
   points="1592.2,997.8 1592.2,1011.2 1386.6,1098.2 1485.8,932.5 "
   id="polygon1340" />

		</g>

		<g
   id="HEAD_1_">
			<path
   class="st13"
   d="m 1597.8,1004.3 h 22.6 c 20.8,0 37.7,-16.9 37.7,-37.7 V 840.7 h -134.9 v 89 c 0,41.2 33.4,74.6 74.6,74.6 z"
   id="path1343" />

			<path
   class="st21"
   d="m 1655.2,959.3 c -14.5,0 -20.3,-10 -20.3,-10"
   id="path1345" />

			<ellipse
   class="st14"
   cx="1642.1"
   cy="909.70001"
   rx="4.8000002"
   ry="9.3000002"
   id="ellipse1347" />

		</g>

		<path
   id="HAIR"
   class="st22"
   d="m 1548.9,853.8 c 0,0 111.3,67.2 147.5,8.7 31.8,-51.3 -109.1,-77.7 -158.3,-77.9 -53.5,-0.2 -124.4,23.5 -123.2,102.2 1,64.8 3.7,159.6 -34.7,143.1 -136.6,-58.6 -258,2.6 -258.4,119.2 -0.4,116.6 134.9,127.5 138.3,97.4 3.5,-30 -84,-23.1 -72.2,54.8 11.7,77.9 63.9,175.3 183.1,175.3 144,0.1 235.7,-189.5 146.6,-208.8 -68.3,-14.8 69.6,117 110.5,-20 44,-147.5 -115,-195.8 -118.9,-284.9 -3.9,-89.1 39.7,-109.1 39.7,-109.1 z" />

		<g
   id="GLASSES">
			<line
   class="st19"
   x1="1541.1"
   y1="907.29999"
   x2="1620.7"
   y2="907.29999"
   id="line1351" />

			<ellipse
   class="st19"
   cx="1645.2"
   cy="910.29999"
   rx="22.6"
   ry="29"
   id="ellipse1353" />

		</g>

		<g
   id="HEADPHONES">
			<path
   class="st0"
   d="m 1498.9,871.6 v -84.2 c 0,-12.6 10.2,-22.9 22.9,-22.9 h 25 c 12.6,0 22.9,10.2 22.9,22.9"
   id="path1356" />

			<path
   class="st11"
   d="m 1523,964.3 h -48.1 c -12.3,0 -22.3,-10 -22.3,-22.3 v -48.1 c 0,-12.3 10,-22.3 22.3,-22.3 h 48.1 c 12.3,0 22.3,10 22.3,22.3 V 942 c -0.1,12.3 -10,22.3 -22.3,22.3 z"
   id="path1358" />

			<path
   class="st11"
   d="M 1510.5,948.4 H 1487 c -10.1,0 -18.4,-8.2 -18.4,-18.4 v -23.5 c 0,-10.1 8.2,-18.4 18.4,-18.4 h 23.5 c 10.1,0 18.4,8.2 18.4,18.4 V 930 c 0,10.2 -8.2,18.4 -18.4,18.4 z"
   id="path1360" />

			<g
   id="g1372">
				<line
   class="st0"
   x1="1519.8"
   y1="890.5"
   x2="1478"
   y2="946.09998"
   id="line1362" />

				<line
   class="st0"
   x1="1506"
   y1="888.59998"
   x2="1469.8"
   y2="936.59998"
   id="line1364" />

				<line
   class="st0"
   x1="1527.9"
   y1="900.40002"
   x2="1491.7"
   y2="948.40002"
   id="line1366" />

				<line
   class="st0"
   x1="1528.9"
   y1="918.29999"
   x2="1506.2"
   y2="948.40002"
   id="line1368" />

				<line
   class="st0"
   x1="1491.3"
   y1="888.59998"
   x2="1468.7"
   y2="918.5"
   id="line1370" />

			</g>

		</g>

	</g>

</g>
      <g
         id="CHAIR">
	<path
   class="st0"
   d="m 1463.3,2280.3 v 55.1 c 0,26.6 -21.6,48.2 -48.2,48.2 h -123.6"
   id="path1377" />

	<line
   class="st0"
   x1="1509.4"
   y1="2280.8999"
   x2="1509.4"
   y2="2786.3999"
   id="line1379" />

	<path
   class="st0"
   d="m 1285.6,2948.5 c 0,-89.5 88.9,-162.1 198.5,-162.1 h 49.8 c 109.6,0 198.5,72.6 198.5,162.1"
   id="path1381" />

	<path
   class="st6"
   d="m 1990.3,2288.6 h -726 c -36.4,0 -65.8,-29.5 -65.8,-65.8 v 0 h 809 z"
   id="path1383" />

	<circle
   class="st6"
   cx="1281.2"
   cy="3002.1001"
   r="53.599998"
   id="circle1385" />

	<path
   class="st6"
   d="m 1253.9,2397.3 h 107.6 c 8.8,0 15.9,-7.1 15.9,-15.9 v -1.2 c 0,-8.8 -7.1,-15.9 -15.9,-15.9 h -107.6 c -8.8,0 -15.9,7.1 -15.9,15.9 v 1.2 c 0,8.8 7.1,15.9 15.9,15.9 z"
   id="path1387" />

	<path
   class="st2"
   d="m 1198.5,2224.8 h 515.1 L 1541.3,1742 c -12,-33.5 -43.7,-55.9 -79.3,-55.9 h -378.7 c -37.6,0 -63.8,37.2 -51.2,72.6 z"
   id="path1389" />

	<path
   class="st2"
   d="m 1224,2224.8 h 447.8 L 1505.3,1758 c -11.6,-32.4 -42.2,-54 -76.6,-54 h -383.4"
   id="path1391" />

	<circle
   class="st6"
   cx="1731.5"
   cy="3002.1001"
   r="53.599998"
   id="circle1393" />

</g>
    </g>
  </g>
  <style
     type="text/css"
     id="style833">
	.st0{fill:none;stroke:#66B0F0;stroke-width:6;stroke-miterlimit:10;}
	.st1{fill:#D0F0E4;}
	.st2{fill:none;stroke:#FFCF2D;stroke-width:6;stroke-miterlimit:10;}
	.st3{fill:#FFFFFF;}
	.st4{fill:#66B0F0;}
	.st5{fill:#FFFFFF;stroke:#FFCF2D;stroke-width:5;stroke-miterlimit:10;}
	.st6{fill:#FFCF2D;}
	.st7{fill:#FFFFFF;stroke:#FE5244;stroke-width:6;stroke-miterlimit:10;}
	.st8{fill:#FE5244;}
	.st9{fill:none;stroke:#FFFFFF;stroke-width:5;stroke-linecap:round;stroke-miterlimit:10;}
	.st10{fill:#3FB1B5;}
	.st11{fill:#FFFFFF;stroke:#66B0F0;stroke-width:6;stroke-miterlimit:10;}
	.st12{fill:none;stroke:#FFCF2D;stroke-width:5;stroke-miterlimit:10;}
	.st13{fill:#A0505A;}
	.st14{fill:#73325A;}
	.st15{fill:#FEB040;}
	.st16{fill:#E57281;}
	.st17{fill:#9A3B82;}
	.st18{fill:#FFFFFF;stroke:#FEB040;stroke-width:4;stroke-miterlimit:10;}
	.st19{fill:none;stroke:#FE5244;stroke-width:6;stroke-miterlimit:10;}
	.st20{fill:none;stroke:#FFFFFF;stroke-width:6;stroke-linecap:round;stroke-miterlimit:10;}
	.st21{fill:none;stroke:#73325A;stroke-width:5;stroke-linecap:round;stroke-miterlimit:10;}
	.st22{fill:#FFCF2D;stroke:#FFFFFF;stroke-width:5;stroke-miterlimit:10;}
</style>
</svg>
